<?xml version="1.0" encoding="UTF-8" standalone="no"?>
<svg
   width="750"
   height="750"
   version="1.1"
   id="svg6"
   xmlns:inkscape="http://www.inkscape.org/namespaces/inkscape"
   xmlns:sodipodi="http://sodipodi.sourceforge.net/DTD/sodipodi-0.dtd"
   xmlns="http://www.w3.org/2000/svg"
   xmlns:svg="http://www.w3.org/2000/svg">
  <sodipodi:namedview
     id="namedview6"
     pagecolor="#ffffff"
     bordercolor="#000000"
     borderopacity="0.25"
     inkscape:showpageshadow="2"
     inkscape:pageopacity="0.0"
     inkscape:pagecheckerboard="0"
     inkscape:deskcolor="#d1d1d1" />
  <defs
     id="defs1" />
  <g
     transform="translate(102.27272727272731, 115.90909090909093) scale(1.3636363636363635)"
     id="g6">
    <g
       transform="translate(0, 0) scale(1 1) rotate(0)"
       fill="url(#stgra_5574)"
       id="g5">
      <svg
         width="400.0"
         height="380.0"
         viewBox="0 0 400 380"
         version="1.1"
         id="svg4">
        <defs
           id="defs4">
          <linearGradient
             id="stgra_5574"
             x1="0%"
             y1="100%"
             x2="100%"
             y2="0%"
             gradientUnits="userSpaceOnUse">
            <stop
               offset="0%"
               style="stop-color:#004d40"
               id="stop1" />
            <stop
               offset="33%"
               style="stop-color:#00bcd4"
               id="stop2" />
            <stop
               offset="67%"
               style="stop-color:#0097a7"
               id="stop3" />
            <stop
               offset="100%"
               style="stop-color:#00acc1"
               id="stop4" />
          </linearGradient>
        </defs>
        <g
           stroke="none"
           class="c1"
           id="g4">
          <path
             d="M 384.9143223221873,4.999578043151239 C 377.3085812565423,7.765302067022109 349.9704630205876,17.764458153324647 324.2279547984046,27.338118235954703 L 277.3170203935173,44.67708038560693 L 241.25623408227744,44.67708038560693 C 166.3157504354677,44.67708038560693 75.10004464818688,45.36851139157463 75.10004464818688,45.953568396624256 C 75.10004464818688,46.219503398919535 81.48248470327358,52.92106545676059 89.30097377075482,60.73955452424177 L 103.55508989378178,74.99367064726877 L 223.49177592895273,74.99367064726877 C 289.443656498182,74.99367064726877 345.76868998432224,75.15323164864591 348.58760100865214,75.36597965048213 L 353.7467400531806,75.68510165323647 L 353.4808050508853,77.86576867205778 C 350.55552002563724,102.97003288873216 336.7268999062827,200.30224372880437 326.6745568195211,266.573246300788 C 324.6002638016179,280.24230541876534 322.738718785551,292.52850252480727 322.4727837832557,293.9113645367427 C 321.9941007791242,296.30477955740025 321.08992177132023,297.31533256612227 298.00676357209,320.3984907653525 C 281.62516743070086,336.78008690674176 273.8066783632196,345.0240719778954 273.22162135816995,346.3537469893718 C 272.10469434852985,349.1194710132427 272.21106834944794,353.0553090472128 273.43436936000626,355.12960206511605 C 275.136353374696,357.8953260889869 279.1253784091252,360.2355541091854 282.5293464385048,360.5014891114806 C 285.08232246053944,360.6610501128578 285.7737534665072,360.5014891114806 287.68848548303316,359.17181410000427 C 291.1988275133309,356.8315860798058 306.7294316473752,342.0455999521883 332.9506228736897,316.090343728169 L 357.04433408164203,292.262567522512 L 357.7889520880688,287.475737481197 C 358.2144480917413,284.81638745824415 361.0333591160712,265.1903842888525 364.11820514269647,243.86239710477116 C 375.3938492400163,165.51794542858184 398.7961294420009,7.02068406059534 399.859869451182,1.701984014689753 C 400.12580445347726,0.42549600367242313 400.0194304525592,0.0 399.48756044796863,0.0 C 399.06206444429614,0.05318700045900826 392.5200633878323,2.2870410197393767 384.9143223221873,4.999578043151239"
             id="i1" />
          <path
             d="M 276.8383373893858,108.87378993968733 C 265.5095062916069,119.93668603517096 239.3415020657514,145.25369825368156 218.70494588763773,165.14563642536848 C 173.07049949376778,209.13128580500765 157.96539136339595,223.97045893308425 151.05108130371866,231.62938699918828 C 147.9662352770934,234.9801680281088 136.85015218115075,249.55340615389014 124.77670307694508,265.93500229527933 L 103.87421189653612,294.3900475408742 L 61.271424528832355,335.7695338980197 C 37.869144326847774,358.5867570949547 18.721824161587662,377.5213292583785 18.721824161587662,377.89363826159195 C 18.721824161587662,378.4255082661825 20.3706211758184,378.69144326847777 24.997890215756257,378.95737827077306 C 31.75263927405635,379.43606127490455 61.37779852975045,378.90419127031396 64.5690185572938,378.26594726480533 C 66.21781557152455,377.946825262051 71.53651561743014,373.05362121981784 100.20430886486126,345.71550298386313 C 148.87041428489738,299.17687758218926 200.78092673293594,249.65978015480823 208.54622879995804,242.3199740914585 L 215.2477908577991,235.99072103683088 L 215.4073518591763,238.8628190616199 C 215.51372586009433,240.45842907539156 215.35416485871718,245.5643811194609 215.03504285596284,250.24483715985787 C 214.23723784907702,261.94597726085016 214.29042484953607,267.530612309051 215.141416856881,267.530612309051 C 215.46053885963528,267.530612309051 219.92824689819605,263.5415872746218 225.03419894226533,258.7015702328477 C 237.4267700492254,246.89405613093732 282.5293464385048,203.12115475313433 282.5293464385048,202.90840675129812 C 282.5293464385048,202.80203275038 284.2313304531946,191.63276265397826 286.25243647063866,178.12326453737808 L 289.97552650277254,153.4976833248352 L 291.99663252021674,151.42339030693205 C 296.1984055564821,147.0088692688304 308.64416366390117,135.52047716967434 308.91009866619646,135.7864121719696 C 309.2824076694099,136.10553417472394 308.11229365931064,143.97721024266423 302.74040661294595,177.6445815332466 C 300.4001785927475,192.4305676608641 298.1663245734672,206.25918778021864 297.84720257071285,208.38666779858087 L 297.20895856520417,212.2161318316329 L 278.8594434068299,230.45927298908904 C 254.02111419245085,255.03166720117287 224.5023289376748,283.80583444952214 188.38835562597586,318.5901327497446 C 156.8484643537558,349.01309701232464 131.21233013249082,374.0641742285399 128.65935411045615,376.9362722533289 L 127.17011809760258,378.6382562680187 L 128.6061671099971,379.0105652712321 C 130.3081511246869,379.43606127490455 149.72140629224225,378.7978172693959 153.39130932391714,378.2127602643463 C 155.35922834090218,377.89363826159195 156.52934235100145,377.25539425608326 158.71000936982273,375.2342882386391 C 168.33685645291183,366.3520591619768 230.14015098633473,307.10174065058857 276.6255893875496,262.21191226314545 C 292.8476245275616,246.57493412818297 308.53778966298313,231.41663899735207 311.5162616886902,228.5977279730221 L 316.9413357355139,223.4385889284937 L 318.1114497456132,216.2051568660621 C 319.1220027543352,209.450407807762 321.5154177749927,193.49430767004523 331.9932568654267,122.43647505674656 C 334.3334848856252,106.53356191948887 336.24821690215117,92.65175479967529 336.24821690215117,91.53482779003515 C 336.24821690215117,89.6732827739682 336.08865590077403,89.46053477213194 334.5994198879205,89.14141276937764 C 333.6952408801165,88.98185176800044 324.9725728048314,88.8222907666233 315.2393517208241,88.8222907666233 L 297.5280805679585,88.8222907666233 L 276.8383373893858,108.87378993968733 M 257.5314562227485,159.98649738084004 C 258.2760742291753,160.5183673854306 259.18025323697924,161.95441639782513 259.60574924065173,163.07134340746526 C 260.24399324616036,164.98607542399128 260.24399324616036,165.41157142766374 259.39300123881543,167.16674244281256 C 258.16970022825717,169.7729054653063 176.0489715194749,250.72352016398935 171.74082448229137,253.59561818877836 C 169.93246646668348,254.76573219887757 169.5601574634701,254.87210619979572 167.7517994478622,254.34023619520514 C 166.63487243822203,254.0211141924508 164.93288842353223,252.90418718281063 163.97552241526927,251.89363417408856 C 161.79485539644793,249.65978015480823 161.58210739461174,246.84086913047827 163.28409140930154,244.0219581061483 C 164.2946444180236,242.4263480923766 187.64373761954909,219.50275089452356 225.08738594272444,183.49515158374274 C 252.0000081750067,157.5930823601825 251.20220316812083,158.2313263656912 254.34023619520514,158.7100093698227 C 255.35078920392726,158.86957037119987 256.7868382163217,159.45462737624948 257.5314562227485,159.98649738084004"
             id="i2" />
          <path
             d="M 117.59645801497253,103.02321988919118 C 105.68256991214402,114.51161198834725 101.26804887404238,119.03250702736702 101.74673187817389,119.29844202966228 C 101.85310587909198,119.35162903012136 134.08442815727983,119.29844202966228 173.28324749560403,119.13888102828514 L 244.60701511119794,118.87294602598985 L 251.73407317271142,112.17138396814882 C 267.3178643072148,97.49177184144938 272.6897513535794,92.11988479508473 272.264255349907,91.69438879141231 C 271.9983203476117,91.42845378911703 239.92655907080098,91.16251878682175 200.99367473477213,91.05614478590361 L 130.1485901233097,90.89658378452647 L 117.59645801497253,103.02321988919118"
             id="i3" />
          <path
             d="M 49.99578043151253,149.72140629224225 C 41.858169361276964,157.53989535972346 35.20979430389498,164.13508341664638 35.20979430389498,164.40101841894167 C 35.20979430389498,164.66695342123694 54.19755346777792,164.8797014230732 83.6631517220949,164.8797014230732 L 132.1165091402948,164.8797014230732 L 147.22161727066663,179.61250055023166 C 155.51878934227938,187.7501116204672 162.53947340287476,194.45167367830823 162.80540840517,194.55804767922635 C 163.3372784097606,194.71760868060352 165.7838804308771,192.48375466132316 184.71845259430103,174.45336150570324 C 195.78134868978464,163.92233541481016 215.4073518591763,145.679194257354 221.3642959105905,140.30730721098936 C 223.54496292941178,138.33938819400433 225.14057294318349,136.53103017839638 224.8746379408882,136.31828217656016 C 224.661889939052,136.10553417472394 188.54791662735306,135.83959917242868 144.6154542481729,135.73322517151053 L 64.72857955867097,135.57366417013338 L 49.99578043151253,149.72140629224225"
             id="i4" />
          <path
             d="M 88.66272976524614,182.9100945786931 C 85.9501927418343,184.18658258971044 82.12072870878227,187.7501116204672 41.592234358981685,227.10849196016855 C 23.295906201066472,244.81976311303413 6.488814056004813,261.09498525350523 4.201773036265422,263.2756522723265 L 0.0,267.21149030629664 L 0.212748001836232,279.0190044082071 C 0.3191220027543409,285.5078184642119 0.5318700045905587,290.98607951149467 0.7446180064267907,291.19882751333085 C 1.4360490123945056,291.8902585192986 4.361334037642578,289.76277850093635 11.328831097778902,283.38033844584965 C 27.869988240545283,268.2220433150187 60.7395545242418,236.62896504233953 84.30139572760355,213.33305884127307 C 99.0873818552211,198.65344671457365 102.3317888832235,195.14310468427595 102.810471887355,193.49430767004523 C 104.77839090434007,186.15450160669553 95.89616182767774,179.55931354977258 88.66272976524614,182.9100945786931"
             id="i5" />
          <path
             d="M 30.103842259825626,189.34572163423888 C 25.370199218969645,190.83495764709244 20.47699517673651,195.88772269070273 19.200507165719173,200.67455273201776 C 17.338962149652218,207.53567579123597 20.95567818086802,215.03504285596284 27.92317524100433,218.7049458876377 C 31.114395268547682,220.4069299023275 37.70958332547062,220.4069299023275 40.90080335301397,218.7049458876377 C 44.25158438193448,216.94977487248886 46.53862540167388,214.76910785366758 48.29379641682273,211.57788782612423 C 49.62347142829914,209.13128580500765 49.83621943013533,208.2271067972037 49.83621943013533,204.50401676506982 C 49.83621943013533,200.78092673293588 49.62347142829914,199.87674772513193 48.29379641682273,197.43014570401536 C 45.36851139157467,192.2178196590279 40.84761635255491,189.2925346337798 35.20979430389498,189.02659963148454 C 33.29506228736898,188.92022563056642 31.008021267629573,189.0797866319436 30.103842259825626,189.34572163423888"
             id="i6" />
          <path
             d="M 120.94723904389305,219.71549889635978 C 117.38371001313631,220.4069299023275 115.41579099615124,221.89616591518106 105.68256991214402,231.36345199689302 C 100.73617886945182,236.2034690386671 80.84424069776493,255.45716320484536 61.53735953112762,274.178987366433 C 42.23047836449037,292.8476245275616 20.53018217719557,314.0160507102658 13.296750114763967,321.1962957722384 L 0.10637400091810889,334.22711088470703 L 0.10637400091810889,343.90714496825524 C 0.10637400091810889,354.22542305731207 0.4786830041315113,358.48038309403654 1.3296750114763967,358.48038309403654 C 2.393415020657514,358.48038309403654 14.892360128535643,346.77924299304425 66.00506756968834,297.9003895711719 C 122.7024100590419,243.70283610339396 131.31870413340897,235.19291602994502 132.96750114763967,232.05488300286072 C 133.71211915406644,230.6720209909253 133.8184931549846,227.1616789606276 133.12706214901687,225.40650794547875 C 131.5846391357042,221.3642959105905 126.00000408750337,218.75813288809675 120.94723904389305,219.71549889635978"
             id="i7" />
          <path
             d="M 287.2098024789017,276.2000933838771 C 286.14606246972056,276.8383373893858 280.40186642014254,282.05066343437323 274.44492236872827,287.74167248349227 C 264.658514284262,297.04939756382703 203.759398758643,356.5656510775105 188.12242062368057,372.0430682110958 L 181.73998056859386,378.3191342652644 L 183.8674605869561,378.7446302689368 C 185.03757459705537,378.95737827077306 191.20726665030588,379.17012627260925 197.5897067053926,379.17012627260925 L 209.13128580500762,379.22331327306836 L 219.66231189590076,369.27734418722486 C 265.82862829436124,325.61081681034005 301.88941460560113,290.02871350323164 302.79359361340505,287.31617647981983 C 304.01689462396337,283.699460448604 301.9426016060601,278.008451399485 298.6981945780578,276.0405323824999 C 296.1984055564821,274.44492236872827 289.8691525018545,274.5512963696464 287.2098024789017,276.2000933838771"
             id="i8" />
          <path
             d="M 123.34065406455058,344.3326409719277 C 120.46855603976154,345.3963809811088 117.64964501543157,347.84298300222537 105.31026090893063,360.07599310780824 L 94.35373881436512,370.97932820191465 L 94.61967381666041,374.54285723267145 L 94.88560881895567,378.10638626342813 L 97.86408084466281,378.4786952666416 C 99.51287785889353,378.69144326847777 104.0337728979133,378.69144326847777 107.96961093188342,378.5318822671006 L 115.04348199293786,378.26594726480533 L 121.15998704572927,372.52175121522725 C 135.73322517151058,358.959066098168 136.47784317793736,358.0548870903641 137.11608718344604,353.3212440495081 C 137.9670791907909,346.56649499120806 130.62727312744124,341.779664949893 123.34065406455058,344.3326409719277"
             id="i9" />
        </g>
      </svg>
    </g>
  </g>
</svg>
